solid Object01
  facet normal 0.000000e+00 0.000000e+00 -1.000000e+00
    outer loop
      vertex 9.976072e+02 1.003057e+03 0.000000e+00
      vertex 9.976072e+02 -9.969426e+02 0.000000e+00
      vertex -1.002393e+03 -9.969426e+02 0.000000e+00
    endloop
  endfacet
  facet normal 0.000000e+00 -0.000000e+00 -1.000000e+00
    outer loop
      vertex -1.002393e+03 -9.969426e+02 0.000000e+00
      vertex -1.002393e+03 1.003057e+03 0.000000e+00
      vertex 9.976072e+02 1.003057e+03 0.000000e+00
    endloop
  endfacet
  facet normal 0.000000e+00 0.000000e+00 1.000000e+00
    outer loop
      vertex 9.976072e+02 1.003057e+03 2.000000e+03
      vertex -1.002393e+03 1.003057e+03 2.000000e+03
      vertex -1.002393e+03 -9.969426e+02 2.000000e+03
    endloop
  endfacet
  facet normal 0.000000e+00 0.000000e+00 1.000000e+00
    outer loop
      vertex -1.002393e+03 -9.969426e+02 2.000000e+03
      vertex 9.976072e+02 -9.969426e+02 2.000000e+03
      vertex 9.976072e+02 1.003057e+03 2.000000e+03
    endloop
  endfacet
  facet normal 0.000000e+00 -1.000000e+00 0.000000e+00
    outer loop
      vertex 9.976072e+02 -9.969426e+02 2.000000e+03
      vertex -1.002393e+03 -9.969426e+02 2.000000e+03
      vertex -1.002393e+03 -9.969426e+02 0.000000e+00
    endloop
  endfacet
  facet normal -0.000000e+00 -1.000000e+00 0.000000e+00
    outer loop
      vertex -1.002393e+03 -9.969426e+02 0.000000e+00
      vertex 9.976072e+02 -9.969426e+02 0.000000e+00
      vertex 9.976072e+02 -9.969426e+02 2.000000e+03
    endloop
  endfacet
  facet normal 1.000000e+00 0.000000e+00 0.000000e+00
    outer loop
      vertex 9.976072e+02 1.003057e+03 2.000000e+03
      vertex 9.976072e+02 -9.969426e+02 2.000000e+03
      vertex 9.976072e+02 -9.969426e+02 0.000000e+00
    endloop
  endfacet
  facet normal 1.000000e+00 0.000000e+00 0.000000e+00
    outer loop
      vertex 9.976072e+02 -9.969426e+02 0.000000e+00
      vertex 9.976072e+02 1.003057e+03 0.000000e+00
      vertex 9.976072e+02 1.003057e+03 2.000000e+03
    endloop
  endfacet
  facet normal 0.000000e+00 1.000000e+00 0.000000e+00
    outer loop
      vertex -1.002393e+03 1.003057e+03 2.000000e+03
      vertex 9.976072e+02 1.003057e+03 2.000000e+03
      vertex 9.976072e+02 1.003057e+03 0.000000e+00
    endloop
  endfacet
  facet normal -0.000000e+00 1.000000e+00 0.000000e+00
    outer loop
      vertex 9.976072e+02 1.003057e+03 0.000000e+00
      vertex -1.002393e+03 1.003057e+03 0.000000e+00
      vertex -1.002393e+03 1.003057e+03 2.000000e+03
    endloop
  endfacet
  facet normal -1.000000e+00 0.000000e+00 0.000000e+00
    outer loop
      vertex -1.002393e+03 -9.969426e+02 2.000000e+03
      vertex -1.002393e+03 1.003057e+03 2.000000e+03
      vertex -1.002393e+03 1.003057e+03 0.000000e+00
    endloop
  endfacet
  facet normal -1.000000e+00 0.000000e+00 0.000000e+00
    outer loop
      vertex -1.002393e+03 1.003057e+03 0.000000e+00
      vertex -1.002393e+03 -9.969426e+02 0.000000e+00
      vertex -1.002393e+03 -9.969426e+02 2.000000e+03
    endloop
  endfacet
endsolid Object01
